<svg version="1.1" viewBox="0.0 0.0 37.79527559055118 37.79527559055118" fill="none" stroke="none" stroke-linecap="square" stroke-miterlimit="10" xmlns:xlink="http://www.w3.org/1999/xlink" xmlns="http://www.w3.org/2000/svg"><clipPath id="p.0"><path d="m0 0l37.795277 0l0 37.795277l-37.795277 0l0 -37.795277z" clip-rule="nonzero"/></clipPath><g clip-path="url(#p.0)"><path fill="#000000" fill-opacity="0.0" d="m0 0l37.795277 0l0 37.795277l-37.795277 0z" fill-rule="evenodd"/><path fill="#a1c3fa" d="m14.134532 24.679047l0 0c-3.426774 -2.1395588 -4.258749 -6.3276367 -1.8582678 -9.354331l0 0c1.1527519 -1.4534693 2.9120007 -2.4392548 4.890732 -2.7404947c1.9787292 -0.301239 4.0148544 0.10674286 5.66045 1.1341963l0 0c3.426775 2.1395597 4.258749 6.327636 1.8582668 9.354331l0 0c-2.4004803 3.0266933 -7.124407 3.7458591 -10.551181 1.6062984z" fill-rule="evenodd"/><path fill="#307bf3" d="m26.914272 20.063236c-0.50691986 3.8707066 -4.370579 6.843769 -8.611774 6.740204c-0.3659668 2.9866676 0.21199417 5.8144875 1.3679504 8.329956c5.0338383 -0.37395477 9.969427 -2.7531204 13.216316 -6.7838173c4.289097 -5.324501 4.461151 -12.020918 1.1626434 -17.14392c-1.9926109 2.2710457 -4.5826073 4.169448 -7.6096478 5.4961605c0.3736801 1.0555286 0.6128807 2.1767025 0.4745121 3.3614178z" fill-rule="evenodd"/><path stroke="#ffffff" stroke-width="1.0" stroke-miterlimit="8.0" stroke-linecap="butt" d="m26.914272 20.063236c-0.50691986 3.8707066 -4.370579 6.843769 -8.611774 6.740204c-0.3659668 2.9866676 0.21199417 5.8144875 1.3679504 8.329956c5.0338383 -0.37395477 9.969427 -2.7531204 13.216316 -6.7838173c4.289097 -5.324501 4.461151 -12.020918 1.1626434 -17.14392c-1.9926109 2.2710457 -4.5826073 4.169448 -7.6096478 5.4961605c0.3736801 1.0555286 0.6128807 2.1767025 0.4745121 3.3614178z" fill-rule="evenodd"/><path fill="#0d5ddf" d="m5.2289524 10.9476385c-0.3431201 0.42602348 -0.6862397 0.8520479 -0.9763689 1.3111324c3.026216 0.39452457 6.012389 1.333044 8.700041 2.9387789c1.5928335 -1.7799797 4.1162386 -2.83712 6.8775015 -2.6079035c2.708273 0.1961565 4.986866 1.6177969 6.2464104 3.6127195c2.9111233 -1.241972 5.3007317 -3.0226889 7.1074467 -5.167082c-1.1173592 -1.4794769 -2.4783287 -2.7553349 -4.2270164 -3.8463616c-7.63064 -4.760844 -18.238098 -3.0576615 -23.728014 3.758716z" fill-rule="evenodd"/><path stroke="#ffffff" stroke-width="1.0" stroke-miterlimit="8.0" stroke-linecap="butt" d="m5.2289524 10.9476385c-0.3431201 0.42602348 -0.6862397 0.8520479 -0.9763689 1.3111324c3.026216 0.39452457 6.012389 1.333044 8.700041 2.9387789c1.5928335 -1.7799797 4.1162386 -2.83712 6.8775015 -2.6079035c2.708273 0.1961565 4.986866 1.6177969 6.2464104 3.6127195c2.9111233 -1.241972 5.3007317 -3.0226889 7.1074467 -5.167082c-1.1173592 -1.4794769 -2.4783287 -2.7553349 -4.2270164 -3.8463616c-7.63064 -4.760844 -18.238098 -3.0576615 -23.728014 3.758716z" fill-rule="evenodd"/><path fill="#0944a1" d="m18.119791 26.361164c-4.0881014 -0.64265823 -7.0317707 -3.909893 -6.7437525 -7.4775524c0.083156586 -1.10639 0.45447922 -2.1692734 1.0581684 -3.0190601c-2.671671 -1.5986099 -5.5837927 -2.5977583 -8.592282 -2.9756918c-3.4536524 6.2939634 -1.1155453 14.225291 5.8218784 18.553257c3.119152 1.9459057 6.6634045 2.862482 10.108185 2.899397c-1.2379894 -2.475666 -1.7880478 -5.203497 -1.6521969 -7.9803505z" fill-rule="evenodd"/><path stroke="#ffffff" stroke-width="1.0" stroke-miterlimit="8.0" stroke-linecap="butt" d="m18.119791 26.361164c-4.0881014 -0.64265823 -7.0317707 -3.909893 -6.7437525 -7.4775524c0.083156586 -1.10639 0.45447922 -2.1692734 1.0581684 -3.0190601c-2.671671 -1.5986099 -5.5837927 -2.5977583 -8.592282 -2.9756918c-3.4536524 6.2939634 -1.1155453 14.225291 5.8218784 18.553257c3.119152 1.9459057 6.6634045 2.862482 10.108185 2.899397c-1.2379894 -2.475666 -1.7880478 -5.203497 -1.6521969 -7.9803505z" fill-rule="evenodd"/></g></svg>