<svg version="1.1" viewBox="0.0 0.0 18.89763779527559 18.89763779527559" fill="none" stroke="none" stroke-linecap="square" stroke-miterlimit="10" xmlns:xlink="http://www.w3.org/1999/xlink" xmlns="http://www.w3.org/2000/svg"><clipPath id="p.0"><path d="m0 0l18.897638 0l0 18.897638l-18.897638 0l0 -18.897638z" clip-rule="nonzero"/></clipPath><g clip-path="url(#p.0)"><path fill="#000000" fill-opacity="0.0" d="m0 0l18.897638 0l0 18.897638l-18.897638 0z" fill-rule="evenodd"/><path fill="#a1c3fa" d="m8.206724 4.373315l0 0c-0.20873737 -0.54793596 -0.26514244 -1.5984805 -0.12598419 -2.3464565l0 0c0.13915825 -0.7479763 0.4211836 -0.9101409 0.62992096 -0.3622048l0 0c0.20873737 0.54793596 0.26514244 1.5984805 0.12598419 2.3464568l0 0c-0.13915825 0.7479763 -0.4211836 0.9101405 -0.62992096 0.36220455z" fill-rule="evenodd"/><path fill="#a1c3fa" d="m7.889575 6.4067974c-0.50119686 -1.2079706 -0.6594286 -3.4729345 -0.39597082 -5.2965465c-0.055360317 -0.0144639015 -0.110720634 -0.028927803 -0.16219568 -0.034027576c-0.25713778 2.0172906 -0.07769489 4.4325128 0.47012424 5.7528524c0.27196693 0.655488 0.589406 0.9248862 0.8937206 0.86524343c-0.02509594 -0.15962219 -0.04744053 -0.33244038 -0.06978512 -0.50525856c-0.25235653 0.0064253807 -0.51054955 -0.2391448 -0.73589325 -0.7822633z" fill-rule="evenodd"/><path stroke="#ffffff" stroke-width="1.0" stroke-miterlimit="8.0" stroke-linecap="butt" d="m7.889575 6.4067974c-0.50119686 -1.2079706 -0.6594286 -3.4729345 -0.39597082 -5.2965465c-0.055360317 -0.0144639015 -0.110720634 -0.028927803 -0.16219568 -0.034027576c-0.25713778 2.0172906 -0.07769489 4.4325128 0.47012424 5.7528524c0.27196693 0.655488 0.589406 0.9248862 0.8937206 0.86524343c-0.02509594 -0.15962219 -0.04744053 -0.33244038 -0.06978512 -0.50525856c-0.25235653 0.0064253807 -0.51054955 -0.2391448 -0.73589325 -0.7822633z" fill-rule="evenodd"/><path fill="#0944a1" d="m8.519494 4.829012c-0.28588676 -0.15704775 -0.4872322 -1.0413177 -0.46128178 -2.0237505c0.0076150894 -0.30463934 0.03538418 -0.5987015 0.07911968 -0.83528376c-0.18493843 -0.4267348 -0.3877163 -0.68747056 -0.5982566 -0.77691877c-0.25251055 1.7473549 -0.10116434 3.9170866 0.3787737 5.073822c0.21578646 0.5200825 0.46306276 0.75506973 0.7047725 0.74864435c-0.08290672 -0.67480993 -0.117126465 -1.4222708 -0.10312748 -2.1865134z" fill-rule="evenodd"/><path stroke="#ffffff" stroke-width="1.0" stroke-miterlimit="8.0" stroke-linecap="butt" d="m8.519494 4.829012c-0.28588676 -0.15704775 -0.4872322 -1.0413177 -0.46128178 -2.0237505c0.0076150894 -0.30463934 0.03538418 -0.5987015 0.07911968 -0.83528376c-0.18493843 -0.4267348 -0.3877163 -0.68747056 -0.5982566 -0.77691877c-0.25251055 1.7473549 -0.10116434 3.9170866 0.3787737 5.073822c0.21578646 0.5200825 0.46306276 0.75506973 0.7047725 0.74864435c-0.08290672 -0.67480993 -0.117126465 -1.4222708 -0.10312748 -2.1865134z" fill-rule="evenodd"/><path fill="#a1c3fa" d="m7.067266 12.339523l0 0c-1.713387 -1.0697794 -2.1293745 -3.1638184 -0.9291339 -4.6771655l0 0c0.57637596 -0.72673464 1.4560003 -1.2196274 2.445366 -1.3702474c0.9893646 -0.1506195 2.0074272 0.05337143 2.830225 0.56709814l0 0c1.7133875 1.0697799 2.1293745 3.163818 0.9291334 4.6771655l0 0c-1.2002401 1.5133467 -3.5622034 1.8729296 -5.2755904 0.8031492z" fill-rule="evenodd"/><path fill="#a1c3fa" d="m17.612442 5.260535c1.8638973 2.7916245 1.8508377 6.3986382 -0.42795563 9.227779c-1.725069 2.1416864 -4.39264 3.3775644 -7.1381187 3.5319357c0.17299557 0.34628868 0.34599113 0.69257545 0.5402832 1.0124226c2.9547148 -0.30192757 5.728771 -1.6700077 7.5603256 -3.9438982c2.6621418 -3.3050709 2.5735703 -7.5713954 0.21086502 -10.75366c-0.25556564 0.31728697 -0.4810524 0.65333843 -0.7453995 0.9254203z" fill-rule="evenodd"/><path stroke="#ffffff" stroke-width="1.0" stroke-miterlimit="8.0" stroke-linecap="butt" d="m17.612442 5.260535c1.8638973 2.7916245 1.8508377 6.3986382 -0.42795563 9.227779c-1.725069 2.1416864 -4.39264 3.3775644 -7.1381187 3.5319357c0.17299557 0.34628868 0.34599113 0.69257545 0.5402832 1.0124226c2.9547148 -0.30192757 5.728771 -1.6700077 7.5603256 -3.9438982c2.6621418 -3.3050709 2.5735703 -7.5713954 0.21086502 -10.75366c-0.25556564 0.31728697 -0.4810524 0.65333843 -0.7453995 0.9254203z" fill-rule="evenodd"/><path fill="#307bf3" d="m13.621332 9.951943c-0.22042274 1.9950476 -2.209382 3.4960747 -4.431902 3.4042969c-0.15689373 1.5396223 0.1787405 3.0057 0.81346226 4.315633c2.632104 -0.14775658 5.1893997 -1.3323021 6.843011 -3.385274c2.1843987 -2.7119493 2.1965313 -6.169793 0.4092903 -8.846125c-1.0171795 1.1552486 -2.351575 2.112597 -3.9215288 2.7706637c0.20800495 0.54866314 0.3463421 1.1300249 0.28766727 1.7408047z" fill-rule="evenodd"/><path stroke="#ffffff" stroke-width="1.0" stroke-miterlimit="8.0" stroke-linecap="butt" d="m13.621332 9.951943c-0.22042274 1.9950476 -2.209382 3.4960747 -4.431902 3.4042969c-0.15689373 1.5396223 0.1787405 3.0057 0.81346226 4.315633c2.632104 -0.14775658 5.1893997 -1.3323021 6.843011 -3.385274c2.1843987 -2.7119493 2.1965313 -6.169793 0.4092903 -8.846125c-1.0171795 1.1552486 -2.351575 2.112597 -3.9215288 2.7706637c0.20800495 0.54866314 0.3463421 1.1300249 0.28766727 1.7408047z" fill-rule="evenodd"/><path fill="#a1c3fa" d="m1.5166067 4.7151437c3.0680442 -3.8090038 9.046879 -4.7290077 13.374386 -2.029241c0.99172115 0.61869645 1.7654505 1.3398561 2.4025965 2.1745248c0.25567055 -0.31741714 0.490036 -0.6083827 0.7156544 -0.9445479c-0.67976 -0.7817657 -1.4747944 -1.476474 -2.4364634 -2.0764222c-4.838393 -3.018489 -11.566292 -2.009391 -15.017841 2.275738c-0.31958795 0.39677143 -0.60912377 0.81229115 -0.8686074 1.2465591c0.42835653 0.028775215 0.85671306 0.05755043 1.2850696 0.086325645c0.1617006 -0.25681114 0.3534534 -0.494874 0.5452062 -0.7329364z" fill-rule="evenodd"/><path stroke="#ffffff" stroke-width="1.0" stroke-miterlimit="8.0" stroke-linecap="butt" d="m1.5166067 4.7151437c3.0680442 -3.8090038 9.046879 -4.7290077 13.374386 -2.029241c0.99172115 0.61869645 1.7654505 1.3398561 2.4025965 2.1745248c0.25567055 -0.31741714 0.490036 -0.6083827 0.7156544 -0.9445479c-0.67976 -0.7817657 -1.4747944 -1.476474 -2.4364634 -2.0764222c-4.838393 -3.018489 -11.566292 -2.009391 -15.017841 2.275738c-0.31958795 0.39677143 -0.60912377 0.81229115 -0.8686074 1.2465591c0.42835653 0.028775215 0.85671306 0.05755043 1.2850696 0.086325645c0.1617006 -0.25681114 0.3534534 -0.494874 0.5452062 -0.7329364z" fill-rule="evenodd"/><path fill="#0d5ddf" d="m1.8309009 4.9137855c-0.18409419 0.22855425 -0.36818838 0.45710897 -0.5234523 0.7036495c1.6404283 0.22212505 3.261369 0.7373409 4.723342 1.6112542c0.85540247 -0.9544301 2.2176714 -1.5163336 3.7139482 -1.3841391c1.4674454 0.11420822 2.7071514 0.8876133 3.3973112 1.9668293c1.5714893 -0.66031456 2.8583794 -1.6126475 3.8281364 -2.7628288c-0.61107635 -0.8009434 -1.3532581 -1.492898 -2.3046608 -2.0864415c-4.1515713 -2.590008 -9.889118 -1.7051954 -12.834624 1.9516764z" fill-rule="evenodd"/><path stroke="#ffffff" stroke-width="1.0" stroke-miterlimit="8.0" stroke-linecap="butt" d="m1.8309009 4.9137855c-0.18409419 0.22855425 -0.36818838 0.45710897 -0.5234523 0.7036495c1.6404283 0.22212505 3.261369 0.7373409 4.723342 1.6112542c0.85540247 -0.9544301 2.2176714 -1.5163336 3.7139482 -1.3841391c1.4674454 0.11420822 2.7071514 0.8876133 3.3973112 1.9668293c1.5714893 -0.66031456 2.8583794 -1.6126475 3.8281364 -2.7628288c-0.61107635 -0.8009434 -1.3532581 -1.492898 -2.3046608 -2.0864415c-4.1515713 -2.590008 -9.889118 -1.7051954 -12.834624 1.9516764z" fill-rule="evenodd"/><path fill="#a1c3fa" d="m3.772583 16.495186c-3.880693 -2.4210176 -5.1058598 -6.9604616 -3.0659451 -10.615348c-0.42864695 -0.028988838 -0.8572939 -0.0579772 -1.255858 -0.068198204c-1.9909786 4.0430574 -0.6015806 8.883649 3.6401072 11.529877c2.1058028 1.3137302 4.5636826 1.8536587 6.9199476 1.7341213c-0.194314 -0.31991386 -0.36732483 -0.66627693 -0.54033566 -1.01264c-1.953958 0.012878418 -3.9531083 -0.47929382 -5.697916 -1.567812z" fill-rule="evenodd"/><path stroke="#ffffff" stroke-width="1.0" stroke-miterlimit="8.0" stroke-linecap="butt" d="m3.772583 16.495186c-3.880693 -2.4210176 -5.1058598 -6.9604616 -3.0659451 -10.615348c-0.42864695 -0.028988838 -0.8572939 -0.0579772 -1.255858 -0.068198204c-1.9909786 4.0430574 -0.6015806 8.883649 3.6401072 11.529877c2.1058028 1.3137302 4.5636826 1.8536587 6.9199476 1.7341213c-0.194314 -0.31991386 -0.36732483 -0.66627693 -0.54033566 -1.01264c-1.953958 0.012878418 -3.9531083 -0.47929382 -5.697916 -1.567812z" fill-rule="evenodd"/><path fill="#0944a1" d="m8.649956 13.332984c-2.2135773 -0.3147545 -3.7725692 -2.0870094 -3.5716405 -4.0560036c0.058962345 -0.6105585 0.27398014 -1.1999187 0.61261845 -1.674077c-1.431953 -0.85526276 -3.0020354 -1.3778296 -4.63222 -1.5571017c-1.9551528 3.5020509 -0.7833002 7.850632 2.9327936 10.1689625c1.6708019 1.0423508 3.5854285 1.5133133 5.456949 1.5004349c-0.6419363 -1.3524551 -0.90689373 -2.8505173 -0.798501 -4.3822145z" fill-rule="evenodd"/><path stroke="#ffffff" stroke-width="1.0" stroke-miterlimit="8.0" stroke-linecap="butt" d="m8.649956 13.332984c-2.2135773 -0.3147545 -3.7725692 -2.0870094 -3.5716405 -4.0560036c0.058962345 -0.6105585 0.27398014 -1.1999187 0.61261845 -1.674077c-1.431953 -0.85526276 -3.0020354 -1.3778296 -4.63222 -1.5571017c-1.9551528 3.5020509 -0.7833002 7.850632 2.9327936 10.1689625c1.6708019 1.0423508 3.5854285 1.5133133 5.456949 1.5004349c-0.6419363 -1.3524551 -0.90689373 -2.8505173 -0.798501 -4.3822145z" fill-rule="evenodd"/></g></svg>