<svg version="1.1" viewBox="0.0 0.0 18.89763779527559 18.89763779527559" fill="none" stroke="none" stroke-linecap="square" stroke-miterlimit="10" xmlns:xlink="http://www.w3.org/1999/xlink" xmlns="http://www.w3.org/2000/svg"><clipPath id="p.0"><path d="m0 0l18.897638 0l0 18.897638l-18.897638 0l0 -18.897638z" clip-rule="nonzero"/></clipPath><g clip-path="url(#p.0)"><path fill="#000000" fill-opacity="0.0" d="m0 0l18.897638 0l0 18.897638l-18.897638 0z" fill-rule="evenodd"/><path fill="#a1c3fa" d="m8.595569 6.943067l0 0c-0.1304617 -0.31310654 -0.15866375 -0.92651176 -0.062992096 -1.370079l0 0c0.0956707 -0.44356728 0.27898788 -0.5493264 0.40944862 -0.23622036l0 0c0.13046074 0.31310654 0.1586628 0.9265113 0.062992096 1.3700786l0 0c-0.095671654 0.44356728 -0.27898788 0.5493269 -0.40944862 0.23622084z" fill-rule="evenodd"/><path fill="#a1c3fa" d="m9.409015 4.8707857c0.14443493 0.8193445 0.14342308 1.8780069 -0.033162117 2.708363c-0.13367748 0.62858725 -0.34038925 0.9913192 -0.55313873 1.0366273c0.0134058 0.10163593 0.0268116 0.20327091 0.041867256 0.2971468c0.2289629 -0.08861542 0.4439268 -0.4901495 0.5858555 -1.1575384c0.2062912 -0.97004175 0.1994276 -2.2222123 0.016340256 -3.1562104c-0.019804 0.09312391 -0.03727722 0.1917553 -0.057762146 0.2716117z" fill-rule="evenodd"/><path stroke="#ffffff" stroke-width="1.0" stroke-miterlimit="8.0" stroke-linecap="butt" d="m9.409015 4.8707857c0.14443493 0.8193445 0.14342308 1.8780069 -0.033162117 2.708363c-0.13367748 0.62858725 -0.34038925 0.9913192 -0.55313873 1.0366273c0.0134058 0.10163593 0.0268116 0.20327091 0.041867256 0.2971468c0.2289629 -0.08861542 0.4439268 -0.4901495 0.5858555 -1.1575384c0.2062912 -0.97004175 0.1994276 -2.2222123 0.016340256 -3.1562104c-0.019804 0.09312391 -0.03727722 0.1917553 -0.057762146 0.2716117z" fill-rule="evenodd"/><path fill="#307bf3" d="m9.099741 6.2477193c-0.01708126 0.5855484 -0.17120743 1.0261011 -0.34343147 0.9991646c-0.012158394 0.45188046 0.013850212 0.8821759 0.063035965 1.266643c0.20396328 -0.043367386 0.40213013 -0.39103222 0.5302696 -0.9935818c0.16927052 -0.79595995 0.17021084 -1.8108406 0.031716347 -2.5963469c-0.078822136 0.33906698 -0.18222523 0.6200495 -0.3038826 0.81319284c0.016119003 0.16103315 0.026838303 0.3316636 0.022292137 0.51092815z" fill-rule="evenodd"/><path stroke="#ffffff" stroke-width="1.0" stroke-miterlimit="8.0" stroke-linecap="butt" d="m9.099741 6.2477193c-0.01708126 0.5855484 -0.17120743 1.0261011 -0.34343147 0.9991646c-0.012158394 0.45188046 0.013850212 0.8821759 0.063035965 1.266643c0.20396328 -0.043367386 0.40213013 -0.39103222 0.5302696 -0.9935818c0.16927052 -0.79595995 0.17021084 -1.8108406 0.031716347 -2.5963469c-0.078822136 0.33906698 -0.18222523 0.6200495 -0.3038826 0.81319284c0.016119003 0.16103315 0.026838303 0.3316636 0.022292137 0.51092815z" fill-rule="evenodd"/><path fill="#a1c3fa" d="m8.1617365 4.710713c0.23774529 -1.1179466 0.70104885 -1.3879685 1.0363913 -0.5955844c0.076848984 0.18158817 0.13680553 0.3932495 0.18617916 0.63822556c0.01981163 -0.09316254 0.037973404 -0.17856121 0.05545616 -0.27722597c-0.052675247 -0.22944927 -0.11428261 -0.43334675 -0.18880272 -0.6094322c-0.37493134 -0.8859296 -0.89628124 -0.5897584 -1.1637449 0.66793156c-0.024765015 0.116452694 -0.047201157 0.23840809 -0.067308426 0.36586618c0.03319359 0.00844574 0.06638718 0.01689148 0.099580765 0.025336742c0.012530327 -0.07537413 0.027389526 -0.14524555 0.042248726 -0.21511745z" fill-rule="evenodd"/><path stroke="#ffffff" stroke-width="1.0" stroke-miterlimit="8.0" stroke-linecap="butt" d="m8.1617365 4.710713c0.23774529 -1.1179466 0.70104885 -1.3879685 1.0363913 -0.5955844c0.076848984 0.18158817 0.13680553 0.3932495 0.18617916 0.63822556c0.01981163 -0.09316254 0.037973404 -0.17856121 0.05545616 -0.27722597c-0.052675247 -0.22944927 -0.11428261 -0.43334675 -0.18880272 -0.6094322c-0.37493134 -0.8859296 -0.89628124 -0.5897584 -1.1637449 0.66793156c-0.024765015 0.116452694 -0.047201157 0.23840809 -0.067308426 0.36586618c0.03319359 0.00844574 0.06638718 0.01689148 0.099580765 0.025336742c0.012530327 -0.07537413 0.027389526 -0.14524555 0.042248726 -0.21511745z" fill-rule="evenodd"/><path fill="#0d5ddf" d="m8.186091 4.7690144c-0.014266014 0.067080975 -0.028532028 0.13416195 -0.04056263 0.20652199c0.12711716 0.06519413 0.2527256 0.21641016 0.36601543 0.47290468c0.06628513 -0.2801261 0.1718483 -0.44504547 0.28779602 -0.4062462c0.11371422 0.03352022 0.20977974 0.2605157 0.26326084 0.5772667c0.12177563 -0.19380331 0.22149754 -0.4733138 0.29664516 -0.81089354c-0.04735279 -0.23507738 -0.104865074 -0.4381671 -0.17858982 -0.6123724c-0.32170868 -0.7601702 -0.76631546 -0.50047684 -0.994565 0.57281876z" fill-rule="evenodd"/><path stroke="#ffffff" stroke-width="1.0" stroke-miterlimit="8.0" stroke-linecap="butt" d="m8.186091 4.7690144c-0.014266014 0.067080975 -0.028532028 0.13416195 -0.04056263 0.20652199c0.12711716 0.06519413 0.2527256 0.21641016 0.36601543 0.47290468c0.06628513 -0.2801261 0.1718483 -0.44504547 0.28779602 -0.4062462c0.11371422 0.03352022 0.20977974 0.2605157 0.26326084 0.5772667c0.12177563 -0.19380331 0.22149754 -0.4733138 0.29664516 -0.81089354c-0.04735279 -0.23507738 -0.104865074 -0.4381671 -0.17858982 -0.6123724c-0.32170868 -0.7601702 -0.76631546 -0.50047684 -0.994565 0.57281876z" fill-rule="evenodd"/><path fill="#a1c3fa" d="m8.336554 8.168167c-0.3007183 -0.7105708 -0.39565706 -2.0429025 -0.2375822 -3.1156154c-0.033216476 -0.008508205 -0.06643295 -0.017015934 -0.097317696 -0.020016193c-0.15428257 1.1866417 -0.04661703 2.6073604 0.28207493 3.3840313c0.16318035 0.38558102 0.35364342 0.5440502 0.536232 0.50896645c-0.015057564 -0.09389496 -0.028464317 -0.19555283 -0.04187107 -0.2972107c-0.15141392 0.0037794113 -0.30632973 -0.14067364 -0.44153595 -0.4601555z" fill-rule="evenodd"/><path stroke="#ffffff" stroke-width="1.0" stroke-miterlimit="8.0" stroke-linecap="butt" d="m8.336554 8.168167c-0.3007183 -0.7105708 -0.39565706 -2.0429025 -0.2375822 -3.1156154c-0.033216476 -0.008508205 -0.06643295 -0.017015934 -0.097317696 -0.020016193c-0.15428257 1.1866417 -0.04661703 2.6073604 0.28207493 3.3840313c0.16318035 0.38558102 0.35364342 0.5440502 0.536232 0.50896645c-0.015057564 -0.09389496 -0.028464317 -0.19555283 -0.04187107 -0.2972107c-0.15141392 0.0037794113 -0.30632973 -0.14067364 -0.44153595 -0.4601555z" fill-rule="evenodd"/><path fill="#0944a1" d="m8.714505 7.2400584c-0.17153168 -0.092381 -0.29233932 -0.61253977 -0.27676964 -1.1904416c0.0045690536 -0.1791997 0.021230698 -0.35217714 0.047472 -0.4913435c-0.11096287 -0.25102043 -0.23262978 -0.40439415 -0.35895348 -0.45701075c-0.1515069 1.0278554 -0.06069851 2.3041687 0.2272644 2.9846015c0.12947178 0.30593014 0.27783775 0.44415855 0.422863 0.44037914c-0.049744606 -0.39694786 -0.07027626 -0.83663034 -0.061876297 -1.2861848z" fill-rule="evenodd"/><path stroke="#ffffff" stroke-width="1.0" stroke-miterlimit="8.0" stroke-linecap="butt" d="m8.714505 7.2400584c-0.17153168 -0.092381 -0.29233932 -0.61253977 -0.27676964 -1.1904416c0.0045690536 -0.1791997 0.021230698 -0.35217714 0.047472 -0.4913435c-0.11096287 -0.25102043 -0.23262978 -0.40439415 -0.35895348 -0.45701075c-0.1515069 1.0278554 -0.06069851 2.3041687 0.2272644 2.9846015c0.12947178 0.30593014 0.27783775 0.44415855 0.422863 0.44037914c-0.049744606 -0.39694786 -0.07027626 -0.83663034 -0.061876297 -1.2861848z" fill-rule="evenodd"/><path fill="#a1c3fa" d="m7.873471 11.627604l0 0c-1.0610828 -0.6262121 -1.3078547 -1.8530226 -0.5511813 -2.7401571l0 0c0.36336756 -0.4260168 0.9142704 -0.71512604 1.5315161 -0.8037262c0.6172457 -0.08859968 1.2502728 0.03056717 1.7598228 0.33128548l0 0c1.0610819 0.6262121 1.3078547 1.8530226 0.55118084 2.7401571l0 0c-0.7566738 0.88713455 -2.230256 1.0986538 -3.2913384 0.47244072z" fill-rule="evenodd"/><path fill="#a1c3fa" d="m14.476033 7.4830413c1.1623573 1.6386895 1.154213 3.7560143 -0.26688004 5.4167256c-1.0757809 1.2571745 -2.7393217 1.9826384 -4.4514465 2.0732546c0.1078825 0.20327091 0.215765 0.40654278 0.33692932 0.5942936c1.8426075 -0.17723179 3.5725546 -0.98029804 4.7147417 -2.3150759c1.6601543 -1.9400845 1.6049194 -4.4444256 0.13149929 -6.312422c-0.15937519 0.1862483 -0.29999352 0.38351107 -0.46484375 0.54322386z" fill-rule="evenodd"/><path stroke="#ffffff" stroke-width="1.0" stroke-miterlimit="8.0" stroke-linecap="butt" d="m14.476033 7.4830413c1.1623573 1.6386895 1.154213 3.7560143 -0.26688004 5.4167256c-1.0757809 1.2571745 -2.7393217 1.9826384 -4.4514465 2.0732546c0.1078825 0.20327091 0.215765 0.40654278 0.33692932 0.5942936c1.8426075 -0.17723179 3.5725546 -0.98029804 4.7147417 -2.3150759c1.6601543 -1.9400845 1.6049194 -4.4444256 0.13149929 -6.312422c-0.15937519 0.1862483 -0.29999352 0.38351107 -0.46484375 0.54322386z" fill-rule="evenodd"/><path fill="#307bf3" d="m11.987112 10.236908c-0.1374588 1.1710968 -1.3778067 2.0522032 -2.7638054 1.9983292c-0.09784222 0.90376186 0.111465454 1.7643518 0.507288 2.533286c1.6414232 -0.08673382 3.2361937 -0.78206444 4.267413 -1.9871635c1.3622265 -1.5919199 1.369792 -3.6216812 0.2552395 -5.192693c-0.6343298 0.6781335 -1.4664803 1.2400985 -2.445529 1.6263862c0.12971497 0.32206535 0.21598434 0.66332626 0.17939377 1.0218554z" fill-rule="evenodd"/><path stroke="#ffffff" stroke-width="1.0" stroke-miterlimit="8.0" stroke-linecap="butt" d="m11.987112 10.236908c-0.1374588 1.1710968 -1.3778067 2.0522032 -2.7638054 1.9983292c-0.09784222 0.90376186 0.111465454 1.7643518 0.507288 2.533286c1.6414232 -0.08673382 3.2361937 -0.78206444 4.267413 -1.9871635c1.3622265 -1.5919199 1.369792 -3.6216812 0.2552395 -5.192693c-0.6343298 0.6781335 -1.4664803 1.2400985 -2.445529 1.6263862c0.12971497 0.32206535 0.21598434 0.66332626 0.17939377 1.0218554z" fill-rule="evenodd"/><path fill="#a1c3fa" d="m4.438409 7.162895c1.9132824 -2.2358932 5.64178 -2.775937 8.340485 -1.1911683c0.618453 0.36317587 1.1009626 0.78649807 1.4982977 1.2764506c0.159441 -0.1863246 0.30559444 -0.35712194 0.44629288 -0.55445194c-0.42390823 -0.45889807 -0.9197054 -0.866693 -1.5194168 -1.218864c-3.0173016 -1.7718594 -7.212928 -1.1795168 -9.36537 1.3358631c-0.19930029 0.23290539 -0.37985945 0.47681618 -0.5416777 0.73173237c0.26713014 0.01689148 0.5342603 0.033782482 0.8013904 0.050673485c0.10083914 -0.15074873 0.2204194 -0.29049206 0.3399992 -0.4302354z" fill-rule="evenodd"/><path stroke="#ffffff" stroke-width="1.0" stroke-miterlimit="8.0" stroke-linecap="butt" d="m4.438409 7.162895c1.9132824 -2.2358932 5.64178 -2.775937 8.340485 -1.1911683c0.618453 0.36317587 1.1009626 0.78649807 1.4982977 1.2764506c0.159441 -0.1863246 0.30559444 -0.35712194 0.44629288 -0.55445194c-0.42390823 -0.45889807 -0.9197054 -0.866693 -1.5194168 -1.218864c-3.0173016 -1.7718594 -7.212928 -1.1795168 -9.36537 1.3358631c-0.19930029 0.23290539 -0.37985945 0.47681618 -0.5416777 0.73173237c0.26713014 0.01689148 0.5342603 0.033782482 0.8013904 0.050673485c0.10083914 -0.15074873 0.2204194 -0.29049206 0.3399992 -0.4302354z" fill-rule="evenodd"/><path fill="#0d5ddf" d="m4.634408 7.2794986c-0.11480427 0.13416195 -0.22960806 0.2683239 -0.32643318 0.41304398c1.0229974 0.13038778 2.0338426 0.4328208 2.9455523 0.94580984c0.533443 -0.56025314 1.382976 -0.8900914 2.3160787 -0.81249285c0.915123 0.06704044 1.6882229 0.5210309 2.118618 1.1545329c0.9800062 -0.38760567 1.7825317 -0.9466276 2.387288 -1.6217866c-0.38107777 -0.47015524 -0.84391403 -0.8763342 -1.4372234 -1.2247453c-2.5889874 -1.5203404 -6.1670146 -1.0009532 -8.0038805 1.145638z" fill-rule="evenodd"/><path stroke="#ffffff" stroke-width="1.0" stroke-miterlimit="8.0" stroke-linecap="butt" d="m4.634408 7.2794986c-0.11480427 0.13416195 -0.22960806 0.2683239 -0.32643318 0.41304398c1.0229974 0.13038778 2.0338426 0.4328208 2.9455523 0.94580984c0.533443 -0.56025314 1.382976 -0.8900914 2.3160787 -0.81249285c0.915123 0.06704044 1.6882229 0.5210309 2.118618 1.1545329c0.9800062 -0.38760567 1.7825317 -0.9466276 2.387288 -1.6217866c-0.38107777 -0.47015524 -0.84391403 -0.8763342 -1.4372234 -1.2247453c-2.5889874 -1.5203404 -6.1670146 -1.0009532 -8.0038805 1.145638z" fill-rule="evenodd"/><path fill="#a1c3fa" d="m5.8452725 14.077805c-2.4200633 -1.4211416 -3.1840973 -4.085805 -1.9119732 -6.231231c-0.26731133 -0.01701641 -0.53462243 -0.03403282 -0.78317356 -0.040032387c-1.2416065 2.373283 -0.37515545 5.2147202 2.2700298 6.768062c1.3132129 0.77116203 2.8459864 1.0881004 4.3153915 1.0179329c-0.12117672 -0.18779087 -0.22906971 -0.3911066 -0.33696175 -0.59442234c-1.2185202 0.0075597763 -2.4652224 -0.28134632 -3.5533128 -0.92030907z" fill-rule="evenodd"/><path stroke="#ffffff" stroke-width="1.0" stroke-miterlimit="8.0" stroke-linecap="butt" d="m5.8452725 14.077805c-2.4200633 -1.4211416 -3.1840973 -4.085805 -1.9119732 -6.231231c-0.26731133 -0.01701641 -0.53462243 -0.03403282 -0.78317356 -0.040032387c-1.2416065 2.373283 -0.37515545 5.2147202 2.2700298 6.768062c1.3132129 0.77116203 2.8459864 1.0881004 4.3153915 1.0179329c-0.12117672 -0.18779087 -0.22906971 -0.3911066 -0.33696175 -0.59442234c-1.2185202 0.0075597763 -2.4652224 -0.28134632 -3.5533128 -0.92030907z" fill-rule="evenodd"/><path fill="#0944a1" d="m8.886881 12.221586c-1.3804221 -0.184762 -2.352635 -1.2250795 -2.2273326 -2.3808832c0.036769867 -0.3583994 0.17085838 -0.7043543 0.38203907 -0.98268604c-0.89298916 -0.5020418 -1.8721185 -0.80878925 -2.8887277 -0.91402245c-1.219265 2.0557117 -0.48847866 4.6083374 1.828938 5.969202c1.0419393 0.6118622 2.235931 0.88831806 3.4030423 0.8807583c-0.40032196 -0.7938938 -0.5655546 -1.6732597 -0.49795914 -2.5723686z" fill-rule="evenodd"/><path stroke="#ffffff" stroke-width="1.0" stroke-miterlimit="8.0" stroke-linecap="butt" d="m8.886881 12.221586c-1.3804221 -0.184762 -2.352635 -1.2250795 -2.2273326 -2.3808832c0.036769867 -0.3583994 0.17085838 -0.7043543 0.38203907 -0.98268604c-0.89298916 -0.5020418 -1.8721185 -0.80878925 -2.8887277 -0.91402245c-1.219265 2.0557117 -0.48847866 4.6083374 1.828938 5.969202c1.0419393 0.6118622 2.235931 0.88831806 3.4030423 0.8807583c-0.40032196 -0.7938938 -0.5655546 -1.6732597 -0.49795914 -2.5723686z" fill-rule="evenodd"/></g></svg>