<svg version="1.1" viewBox="0.0 0.0 151.1811023622047 37.79527559055118" fill="none" stroke="none" stroke-linecap="square" stroke-miterlimit="10" xmlns:xlink="http://www.w3.org/1999/xlink" xmlns="http://www.w3.org/2000/svg"><clipPath id="p.0"><path d="m0 0l151.1811 0l0 37.795277l-151.1811 0l0 -37.795277z" clip-rule="nonzero"/></clipPath><g clip-path="url(#p.0)"><path fill="#000000" fill-opacity="0.0" d="m0 0l151.1811 0l0 37.795277l-151.1811 0z" fill-rule="evenodd"/><path fill="#ffffff" d="m32.908367 23.898687c-2.9546204 0 -5.6397324 0.14072037 -8.055334 0.4221592c-2.4156036 0.28143883 -4.25226 0.6942158 -5.5099697 1.2383308c-1.2577095 0.54223824 -1.8865662 1.1257553 -1.8865662 1.7505493c0 0.56850624 0.5124035 1.0826015 1.5372028 1.542284c1.031456 0.45780754 2.595274 0.84150314 4.6914577 1.1510849c1.6170559 0.24203682 4.4419136 0.5000229 8.474571 0.7739563c4.0326576 0.2720585 6.6379166 0.47281837 7.815773 0.60227966c1.8366547 0.19700813 3.154255 0.44091988 3.9528008 0.73174095c0.79854965 0.28894424 1.1978226 0.62760925 1.1978226 1.015995c0 0.38275528 -0.41591263 0.7364311 -1.2477303 1.0610237c-0.8251648 0.32271576 -2.0862007 0.5769501 -3.7831116 0.7626991c-1.6969109 0.18574905 -3.6533508 0.2786255 -5.869316 0.2786255c-2.4954567 0 -4.7413673 -0.12195969 -6.737732 -0.36587143c-1.9963665 -0.24579239 -3.4703484 -0.5666313 -4.4219513 -0.9625206c-0.9449444 -0.3977661 -1.5471821 -0.90623474 -1.8067093 -1.5253983l-5.4800243 0.13508987c0.079854965 0.8274307 0.88173103 1.5694885 2.4056206 2.226181c1.5305481 0.6548157 3.636715 1.1454582 6.3184967 1.4719238c2.6884403 0.32646942 6.019043 0.48970413 9.991808 0.48970413c3.1342964 0 5.9524956 -0.16135788 8.454609 -0.48407364c2.5087662 -0.3245926 4.4319305 -0.77770996 5.769497 -1.3593483c1.3375664 -0.583519 2.0063477 -1.2045593 2.0063477 -1.8631248c0 -0.664196 -0.60889053 -1.2505283 -1.8266754 -1.758995c-1.2177811 -0.51034164 -3.1043472 -0.9315624 -5.6596947 -1.2636604c-1.7568016 -0.22515106 -4.99757 -0.4878254 -9.7223015 -0.7880287c-4.718075 -0.30207634 -7.636097 -0.59664917 -8.754063 -0.8837166c-1.137928 -0.2870674 -1.706892 -0.65293884 -1.706892 -1.0976124c0 -0.5122185 0.80187607 -0.9493866 2.4056206 -1.3115044c1.6104031 -0.3639946 4.1724033 -0.5459919 7.6860065 -0.5459919c3.3738594 0 5.92255 0.19982147 7.64608 0.5994644c1.7301826 0.39964485 2.7450027 0.99066544 3.0444565 1.7730656l5.5698624 -0.11820412c-0.09981918 -0.72611237 -0.81851196 -1.376236 -2.1560745 -1.9503708c-1.3375664 -0.57413673 -3.2507515 -1.0084896 -5.7395515 -1.3030624c-2.482151 -0.29644966 -5.3502617 -0.44467354 -8.604336 -0.44467354z" fill-rule="evenodd"/><path fill="#ffffff" d="m79.17414 23.898687c-4.3720474 0 -8.235008 0.2532959 -11.588905 0.7598858c-3.353897 0.5065899 -5.9258766 1.282423 -7.715954 2.3274975c-1.7834167 1.0432014 -2.675129 2.16708 -2.675129 3.3716373c0 1.2158165 0.898365 2.3162422 2.695095 3.3012772c1.7967262 0.98503876 4.4552193 1.7383537 7.9754753 2.2599564c3.5269165 0.519722 7.4464493 0.779583 11.758598 0.779583c3.1941833 0 6.30851 -0.16135788 9.342987 -0.48407364c3.0344772 -0.3245926 5.9791183 -0.8077278 8.833916 -1.4494095l0 -4.5930824l-18.596138 0.008443832l0 1.4522247l12.906502 0l0 2.3049831c-1.2377472 0.30958176 -3.0544434 0.60134125 -5.450081 0.87527466c-2.3956375 0.27205658 -4.851166 0.40808487 -7.366585 0.40808487c-2.8947296 0 -5.629753 -0.18011856 -8.205063 -0.5403595c-2.5753174 -0.36024475 -4.5384064 -0.91186523 -5.889282 -1.6548615c-1.3442192 -0.74300003 -2.016327 -1.6661186 -2.016327 -2.7693577c0 -0.89497566 0.55898285 -1.7252216 1.6769485 -2.490734c0.6587982 -0.44467354 1.580452 -0.8527603 2.7649612 -1.2242584c1.1911697 -0.37150002 2.7549896 -0.670763 4.6914597 -0.8977909c1.9364777 -0.22890282 4.2323 -0.34335518 6.8874664 -0.34335518c2.2159653 0 4.232292 0.108823776 6.0489807 0.32646942c1.8166962 0.21576881 3.2141495 0.50377464 4.1923676 0.8640175c0.9782257 0.36024094 1.79673 0.85557365 2.455536 1.4859962l5.2404556 -0.40527153c-0.7586212 -0.8330593 -1.8666 -1.5085125 -3.323944 -2.0263596c-1.4573517 -0.51784706 -3.4703522 -0.92124367 -6.039009 -1.2101879c-2.562004 -0.29081917 -5.4301147 -0.4362297 -8.604332 -0.4362297z" fill-rule="evenodd"/><path fill="#ffffff" d="m106.48442 24.109766l0 12.37768l32.76036 0l0 -1.4606667l-26.950943 0l0 -4.2131405l24.285782 0l0 -1.4522228l-24.285782 0l0 -3.7909813l25.932785 0l0 -1.4606686z" fill-rule="evenodd"/><path fill="#a1c3fa" d="m75.56839 13.882864l0 0c-1.5046539 -1.0436878 -1.8571854 -3.0813208 -0.7874069 -4.551182l0 0c0.5137253 -0.70585155 1.2934494 -1.1836939 2.167633 -1.3284063c0.87418365 -0.1447134 1.771225 0.055556297 2.4937897 0.55675316l0 0c1.5046463 1.0436878 1.8571777 3.0813208 0.7873993 4.551181l0 0c-1.0697784 1.469861 -3.1567688 1.815342 -4.661415 0.7716541z" fill-rule="evenodd"/><path fill="#a1c3fa" d="m84.880005 6.966921c1.6575623 2.7389526 1.6459503 6.2779093 -0.3805771 9.053671c-1.5341034 2.1012764 -3.906372 3.313837 -6.3479233 3.4652958c0.15384674 0.3397541 0.30769348 0.6795082 0.48047638 0.99332047c2.6276245 -0.29623032 5.094589 -1.6385002 6.7233887 -3.8694859c2.3674393 -3.242711 2.2886734 -7.4285383 0.18752289 -10.55076c-0.22727966 0.31130028 -0.42780304 0.64101076 -0.6628876 0.907959z" fill-rule="evenodd"/><path stroke="#ffffff" stroke-width="1.0" stroke-miterlimit="8.0" stroke-linecap="butt" d="m84.880005 6.966921c1.6575623 2.7389526 1.6459503 6.2779093 -0.3805771 9.053671c-1.5341034 2.1012764 -3.906372 3.313837 -6.3479233 3.4652958c0.15384674 0.3397541 0.30769348 0.6795082 0.48047638 0.99332047c2.6276245 -0.29623032 5.094589 -1.6385002 6.7233887 -3.8694859c2.3674393 -3.242711 2.2886734 -7.4285383 0.18752289 -10.55076c-0.22727966 0.31130028 -0.42780304 0.64101076 -0.6628876 0.907959z" fill-rule="evenodd"/><path fill="#307bf3" d="m81.33072 11.569813c-0.19602203 1.9574051 -1.9648056 3.43011 -3.9412842 3.340065c-0.13952637 1.5105724 0.1589508 2.948988 0.72341156 4.2342052c2.3407211 -0.14496994 4.6149216 -1.3071632 6.0854797 -3.3214006c1.9425812 -2.660781 1.9533691 -6.053382 0.36398315 -8.679216c-0.90457916 1.133451 -2.0912552 2.0727363 -3.4874115 2.7183871c0.18497467 0.53831005 0.30799866 1.1087036 0.25582123 1.7079592z" fill-rule="evenodd"/><path stroke="#ffffff" stroke-width="1.0" stroke-miterlimit="8.0" stroke-linecap="butt" d="m81.33072 11.569813c-0.19602203 1.9574051 -1.9648056 3.43011 -3.9412842 3.340065c-0.13952637 1.5105724 0.1589508 2.948988 0.72341156 4.2342052c2.3407211 -0.14496994 4.6149216 -1.3071632 6.0854797 -3.3214006c1.9425812 -2.660781 1.9533691 -6.053382 0.36398315 -8.679216c-0.90457916 1.133451 -2.0912552 2.0727363 -3.4874115 2.7183871c0.18497467 0.53831005 0.30799866 1.1087036 0.25582123 1.7079592z" fill-rule="evenodd"/><path fill="#a1c3fa" d="m70.566 6.4318204c2.7284012 -3.737136 8.045372 -4.639781 11.893822 -1.9909534c0.8819351 0.60702276 1.570015 1.3145761 2.1366272 2.1334963c0.22737122 -0.31142807 0.43579102 -0.5969038 0.63642883 -0.92672634c-0.60450745 -0.76701546 -1.3115311 -1.4486165 -2.1667404 -2.0372446c-4.30278 -2.9615364 -10.285889 -1.9714782 -13.355354 2.2327998c-0.2842102 0.3892846 -0.541687 0.79696465 -0.7724457 1.2230387c0.38093567 0.028232574 0.76187134 0.056464672 1.142807 0.08469725c0.14379883 -0.251966 0.31432343 -0.48553658 0.48485565 -0.7191076z" fill-rule="evenodd"/><path stroke="#ffffff" stroke-width="1.0" stroke-miterlimit="8.0" stroke-linecap="butt" d="m70.566 6.4318204c2.7284012 -3.737136 8.045372 -4.639781 11.893822 -1.9909534c0.8819351 0.60702276 1.570015 1.3145761 2.1366272 2.1334963c0.22737122 -0.31142807 0.43579102 -0.5969038 0.63642883 -0.92672634c-0.60450745 -0.76701546 -1.3115311 -1.4486165 -2.1667404 -2.0372446c-4.30278 -2.9615364 -10.285889 -1.9714782 -13.355354 2.2327998c-0.2842102 0.3892846 -0.541687 0.79696465 -0.7724457 1.2230387c0.38093567 0.028232574 0.76187134 0.056464672 1.142807 0.08469725c0.14379883 -0.251966 0.31432343 -0.48553658 0.48485565 -0.7191076z" fill-rule="evenodd"/><path fill="#0d5ddf" d="m70.8455 6.626714c-0.16371155 0.22424221 -0.32743073 0.44848394 -0.46549988 0.69037294c1.4588242 0.21793413 2.9003296 0.7234287 4.2004623 1.5808535c0.76070404 -0.93642235 1.972168 -1.4877238 3.3028107 -1.3580236c1.3049927 0.112053394 2.407463 0.8708658 3.021225 1.9297199c1.397522 -0.64785576 2.541954 -1.5822206 3.4043503 -2.7107005c-0.5434265 -0.785831 -1.2034454 -1.4647298 -2.04953 -2.0470743c-3.691986 -2.54114 -8.79438 -1.673022 -11.413818 1.9148521z" fill-rule="evenodd"/><path stroke="#ffffff" stroke-width="1.0" stroke-miterlimit="8.0" stroke-linecap="butt" d="m70.8455 6.626714c-0.16371155 0.22424221 -0.32743073 0.44848394 -0.46549988 0.69037294c1.4588242 0.21793413 2.9003296 0.7234287 4.2004623 1.5808535c0.76070404 -0.93642235 1.972168 -1.4877238 3.3028107 -1.3580236c1.3049927 0.112053394 2.407463 0.8708658 3.021225 1.9297199c1.397522 -0.64785576 2.541954 -1.5822206 3.4043503 -2.7107005c-0.5434265 -0.785831 -1.2034454 -1.4647298 -2.04953 -2.0470743c-3.691986 -2.54114 -8.79438 -1.673022 -11.413818 1.9148521z" fill-rule="evenodd"/><path fill="#a1c3fa" d="m72.572235 17.989597c-3.4510956 -2.3753376 -4.540634 -6.829132 -2.7265396 -10.415058c-0.38119507 -0.02844143 -0.76239014 -0.056883335 -1.1168365 -0.06691122c-1.7705765 3.9667735 -0.5349808 8.716034 3.2371445 11.312332c1.8726883 1.2889423 4.0584793 1.8186836 6.1539 1.7014027c-0.17279816 -0.313879 -0.32666016 -0.6537056 -0.48051453 -0.9935341c-1.7376556 0.012636185 -3.5154953 -0.47025108 -5.067154 -1.5382309z" fill-rule="evenodd"/><path stroke="#ffffff" stroke-width="1.0" stroke-miterlimit="8.0" stroke-linecap="butt" d="m72.572235 17.989597c-3.4510956 -2.3753376 -4.540634 -6.829132 -2.7265396 -10.415058c-0.38119507 -0.02844143 -0.76239014 -0.056883335 -1.1168365 -0.06691122c-1.7705765 3.9667735 -0.5349808 8.716034 3.2371445 11.312332c1.8726883 1.2889423 4.0584793 1.8186836 6.1539 1.7014027c-0.17279816 -0.313879 -0.32666016 -0.6537056 -0.48051453 -0.9935341c-1.7376556 0.012636185 -3.5154953 -0.47025108 -5.067154 -1.5382309z" fill-rule="evenodd"/><path fill="#0944a1" d="m76.909676 14.88706c-1.9685287 -0.30881596 -3.3549423 -2.0476322 -3.1762543 -3.979476c0.05243683 -0.5990381 0.24365234 -1.1772785 0.5447998 -1.6424904c-1.2734299 -0.83912563 -2.6697083 -1.3518324 -4.119423 -1.5277224c-1.7387161 3.435975 -0.69659424 7.702507 2.6081238 9.977097c1.4858475 1.0226822 3.1885223 1.4847584 4.8528595 1.4721241c-0.57086945 -1.3269386 -0.80649567 -2.7967358 -0.7101059 -4.299532z" fill-rule="evenodd"/><path stroke="#ffffff" stroke-width="1.0" stroke-miterlimit="8.0" stroke-linecap="butt" d="m76.909676 14.88706c-1.9685287 -0.30881596 -3.3549423 -2.0476322 -3.1762543 -3.979476c0.05243683 -0.5990381 0.24365234 -1.1772785 0.5447998 -1.6424904c-1.2734299 -0.83912563 -2.6697083 -1.3518324 -4.119423 -1.5277224c-1.7387161 3.435975 -0.69659424 7.702507 2.6081238 9.977097c1.4858475 1.0226822 3.1885223 1.4847584 4.8528595 1.4721241c-0.57086945 -1.3269386 -0.80649567 -2.7967358 -0.7101059 -4.299532z" fill-rule="evenodd"/></g></svg>