<svg version="1.1" viewBox="0.0 0.0 18.89763779527559 18.89763779527559" fill="none" stroke="none" stroke-linecap="square" stroke-miterlimit="10" xmlns:xlink="http://www.w3.org/1999/xlink" xmlns="http://www.w3.org/2000/svg"><clipPath id="p.0"><path d="m0 0l18.897638 0l0 18.897638l-18.897638 0l0 -18.897638z" clip-rule="nonzero"/></clipPath><g clip-path="url(#p.0)"><path fill="#000000" fill-opacity="0.0" d="m0 0l18.897638 0l0 18.897638l-18.897638 0z" fill-rule="evenodd"/><path fill="#a1c3fa" d="m7.067266 12.339523l0 0c-1.713387 -1.0697794 -2.1293745 -3.1638184 -0.9291339 -4.6771655l0 0c0.57637596 -0.72673464 1.4560003 -1.2196274 2.445366 -1.3702474c0.9893646 -0.1506195 2.0074272 0.05337143 2.830225 0.56709814l0 0c1.7133875 1.0697799 2.1293745 3.163818 0.9291334 4.6771655l0 0c-1.2002401 1.5133467 -3.5622034 1.8729296 -5.2755904 0.8031492z" fill-rule="evenodd"/><path fill="#307bf3" d="m13.457136 10.031618c-0.25345993 1.9353533 -2.1852894 3.4218845 -4.305887 3.370102c-0.1829834 1.4933338 0.105997086 2.9072437 0.6839752 4.164978c2.5169191 -0.18697739 4.9847136 -1.3765602 6.608158 -3.3919086c2.1445484 -2.6622505 2.2305756 -6.010459 0.5813217 -8.57196c-0.99630547 1.1355228 -2.2913036 2.084724 -3.8048239 2.7480803c0.18684006 0.5277643 0.30644035 1.0883512 0.23725605 1.6807089z" fill-rule="evenodd"/><path stroke="#ffffff" stroke-width="1.0" stroke-miterlimit="8.0" stroke-linecap="butt" d="m13.457136 10.031618c-0.25345993 1.9353533 -2.1852894 3.4218845 -4.305887 3.370102c-0.1829834 1.4933338 0.105997086 2.9072437 0.6839752 4.164978c2.5169191 -0.18697739 4.9847136 -1.3765602 6.608158 -3.3919086c2.1445484 -2.6622505 2.2305756 -6.010459 0.5813217 -8.57196c-0.99630547 1.1355228 -2.2913036 2.084724 -3.8048239 2.7480803c0.18684006 0.5277643 0.30644035 1.0883512 0.23725605 1.6807089z" fill-rule="evenodd"/><path fill="#0d5ddf" d="m2.6144762 5.4738193c-0.17156005 0.21301174 -0.34311986 0.42602396 -0.48818445 0.6555662c1.513108 0.19726229 3.0061946 0.666522 4.3500204 1.4693894c0.79641676 -0.88998985 2.0581193 -1.41856 3.4387507 -1.3039517c1.3541365 0.09807825 2.493433 0.80889845 3.1232052 1.8063598c1.4555616 -0.620986 2.6503658 -1.5113444 3.5537233 -2.583541c-0.5586796 -0.73973846 -1.2391644 -1.3776674 -2.1135082 -1.9231808c-3.81532 -2.380422 -9.119049 -1.5288308 -11.864007 1.879358z" fill-rule="evenodd"/><path stroke="#ffffff" stroke-width="1.0" stroke-miterlimit="8.0" stroke-linecap="butt" d="m2.6144762 5.4738193c-0.17156005 0.21301174 -0.34311986 0.42602396 -0.48818445 0.6555662c1.513108 0.19726229 3.0061946 0.666522 4.3500204 1.4693894c0.79641676 -0.88998985 2.0581193 -1.41856 3.4387507 -1.3039517c1.3541365 0.09807825 2.493433 0.80889845 3.1232052 1.8063598c1.4555616 -0.620986 2.6503658 -1.5113444 3.5537233 -2.583541c-0.5586796 -0.73973846 -1.2391644 -1.3776674 -2.1135082 -1.9231808c-3.81532 -2.380422 -9.119049 -1.5288308 -11.864007 1.879358z" fill-rule="evenodd"/><path fill="#0944a1" d="m9.0598955 13.180582c-2.0440507 -0.32132912 -3.5158854 -1.9549465 -3.3718762 -3.7387762c0.041578293 -0.553195 0.22723961 -1.0846367 0.5290842 -1.5095301c-1.3358355 -0.79930496 -2.7918963 -1.2988791 -4.296141 -1.4878459c-1.7268262 3.1469817 -0.55777264 7.1126456 2.9109392 9.2766285c1.559576 0.97295284 3.3317022 1.431241 5.0540924 1.4496984c-0.6189947 -1.237833 -0.8940239 -2.6017485 -0.82609844 -3.9901752z" fill-rule="evenodd"/><path stroke="#ffffff" stroke-width="1.0" stroke-miterlimit="8.0" stroke-linecap="butt" d="m9.0598955 13.180582c-2.0440507 -0.32132912 -3.5158854 -1.9549465 -3.3718762 -3.7387762c0.041578293 -0.553195 0.22723961 -1.0846367 0.5290842 -1.5095301c-1.3358355 -0.79930496 -2.7918963 -1.2988791 -4.296141 -1.4878459c-1.7268262 3.1469817 -0.55777264 7.1126456 2.9109392 9.2766285c1.559576 0.97295284 3.3317022 1.431241 5.0540924 1.4496984c-0.6189947 -1.237833 -0.8940239 -2.6017485 -0.82609844 -3.9901752z" fill-rule="evenodd"/></g></svg>